<?xml version="1.0" encoding="UTF-8"?>
<svg version="1.1" xmlns="http://www.w3.org/2000/svg" width="2000" height="2000">
<path d="M0 0 C660 0 1320 0 2000 0 C2000 660 2000 1320 2000 2000 C1340 2000 680 2000 0 2000 C0 1340 0 680 0 0 Z " fill="#F5F3EF" transform="translate(0,0)"/>
<path d="M0 0 C0.7237381 0.05858185 1.4474762 0.1171637 2.19314575 0.17752075 C15.78139477 1.31358779 29.38310889 3.23741929 42.5625 6.8125 C43.71431763 7.12272095 43.71431763 7.12272095 44.8894043 7.43920898 C77.79821982 16.55634185 108.98659097 29.93263654 139.6875 44.6875 C138.46745175 48.59485104 137.06456089 52.12288345 135.10546875 55.71484375 C134.59169678 56.66109619 134.0779248 57.60734863 133.54858398 58.58227539 C132.99630127 59.58637451 132.44401855 60.59047363 131.875 61.625 C131.30402588 62.67099365 130.73305176 63.7169873 130.14477539 64.79467773 C122.81430614 78.17957529 115.26461398 91.44117844 107.6875 104.6875 C104.02058061 104.1025951 101.22623247 103.09879297 97.9765625 101.31640625 C96.62232178 100.58611206 96.62232178 100.58611206 95.24072266 99.84106445 C94.27440918 99.31601318 93.3080957 98.79096191 92.3125 98.25 C72.81722248 87.89670671 52.60839284 79.70042382 31.6875 72.6875 C30.6557666 72.34066162 29.6240332 71.99382324 28.56103516 71.63647461 C20.56875078 69.05587285 12.58826132 67.38822102 4.3125 66 C3.09433594 65.78794922 1.87617187 65.57589844 0.62109375 65.35742188 C-2.68799864 64.78545771 -5.99711734 64.2217845 -9.3125 63.6875 C-10.94590332 63.41160034 -10.94590332 63.41160034 -12.61230469 63.13012695 C-17.05415518 62.59878129 -21.39855968 62.54409971 -25.8671875 62.5546875 C-26.76817169 62.55373077 -27.66915588 62.55277405 -28.59744263 62.55178833 C-30.49513825 62.55111075 -32.39283624 62.55293547 -34.29052734 62.55712891 C-37.17160336 62.56247053 -40.05252261 62.55717598 -42.93359375 62.55078125 C-44.78645867 62.55144235 -46.6393235 62.55272417 -48.4921875 62.5546875 C-49.34247528 62.55266327 -50.19276306 62.55063904 -51.06881714 62.54855347 C-69.1766483 62.61836625 -86.7291595 67.70832653 -100.0625 80.375 C-111.30635498 91.93118429 -116.73001866 105.55333245 -116.625 121.5625 C-116.62081055 122.44019043 -116.61662109 123.31788086 -116.61230469 124.22216797 C-116.49827258 130.77416199 -115.66878982 136.53889825 -113.3125 142.6875 C-113.02246094 143.533125 -112.73242188 144.37875 -112.43359375 145.25 C-106.47039173 161.61761725 -93.03284235 175.4356287 -79.3125 185.6875 C-78.69810059 186.14833984 -78.08370117 186.60917969 -77.45068359 187.08398438 C-67.05951498 194.79945926 -56.1892582 201.58407757 -45.01953125 208.10595703 C-42.22656055 209.73770885 -39.44110766 211.38178921 -36.65625 213.02734375 C-26.08262321 219.25506436 -15.43005412 225.31850034 -4.6875 231.25 C29.72145903 250.28796385 62.27264706 271.12813053 91.41796875 297.63671875 C93.52402418 299.53978088 95.66070469 301.39903821 97.8125 303.25 C128.63356937 330.16417325 149.34429855 366.53937329 157.9375 406.375 C158.08864258 407.07359131 158.23978516 407.77218262 158.39550781 408.49194336 C161.22936704 422.54129623 162.03211793 436.34049053 161.9375 450.625 C161.93406586 451.47677826 161.93063171 452.32855652 161.92709351 453.20614624 C161.79170561 481.97053176 159.44407566 510.40414172 149.6875 537.6875 C149.46481445 538.33299805 149.24212891 538.97849609 149.01269531 539.64355469 C145.40299164 550.09591242 140.95294669 559.96611435 135.6875 569.6875 C135.34879883 570.3151123 135.01009766 570.94272461 134.66113281 571.58935547 C112.14349056 612.65785684 70.35702464 642.28199485 25.9375 655.375 C23.92768893 655.95462128 21.91549897 656.52205071 19.8984375 657.07592773 C18.31679289 657.51342991 16.73903568 657.96508365 15.1640625 658.42602539 C8.23012509 660.41366253 1.32018755 661.7043928 -5.8125 662.75 C-6.95904053 662.91918945 -8.10558105 663.08837891 -9.28686523 663.26269531 C-12.62738976 663.74775714 -15.96967592 664.21859707 -19.3125 664.6875 C-20.14281738 664.81044434 -20.97313477 664.93338867 -21.82861328 665.06005859 C-80.52190782 673.6277684 -148.73394288 661.62736268 -196.953125 626.03515625 C-207.94113875 617.70708244 -218.67755056 608.47141876 -227.3125 597.6875 C-228.06789063 596.7696875 -228.82328125 595.851875 -229.6015625 594.90625 C-247.33602644 572.94349452 -258.94545348 546.33798016 -264.3125 518.6875 C-264.44108398 518.04973633 -264.56966797 517.41197266 -264.70214844 516.75488281 C-272.712883 477.00279061 -270.91499566 431.06531108 -254.3125 393.6875 C-253.85085449 392.62934082 -253.85085449 392.62934082 -253.37988281 391.54980469 C-248.37136564 380.15816307 -242.65737664 369.73377824 -235.3125 359.6875 C-234.68359863 358.82535889 -234.68359863 358.82535889 -234.04199219 357.94580078 C-228.54961059 350.48521007 -222.70417215 343.39969848 -216.3125 336.6875 C-215.75852539 336.10097656 -215.20455078 335.51445313 -214.63378906 334.91015625 C-182.59609407 301.1934079 -140.46365843 280.56718885 -97.3125 264.6875 C-94.64452376 263.69095218 -91.97852502 262.6892597 -89.3125 261.6875 C-89.94003174 261.3064209 -90.56756348 260.9253418 -91.21411133 260.53271484 C-115.14935314 245.93917184 -136.90158669 229.86138826 -157.3125 210.6875 C-158.03050781 210.02363281 -158.74851562 209.35976563 -159.48828125 208.67578125 C-179.78601347 189.27293903 -193.19118342 160.98527023 -194.48950195 132.85205078 C-195.02917118 97.89610571 -195.02917118 97.89610571 -190.3125 83.6875 C-190.09819336 83.0078418 -189.88388672 82.32818359 -189.66308594 81.62792969 C-185.20204895 67.63442939 -177.99508764 55.76974883 -168.3125 44.6875 C-167.73371094 44.02492188 -167.15492188 43.36234375 -166.55859375 42.6796875 C-146.27205931 21.03487538 -115.09579787 7.94519801 -86.3125 2.6875 C-85.33716309 2.50558105 -84.36182617 2.32366211 -83.35693359 2.13623047 C-55.68957339 -2.82669404 -27.92246353 -2.29062323 0 0 Z " fill="#222222" transform="translate(1053.3125,615.3125)"/>
<path d="M0 0 C1.11246094 0.65540771 2.22492188 1.31081543 3.37109375 1.98608398 C4.55410139 2.70438856 5.7363793 3.42389618 6.91796875 4.14453125 C7.51851074 4.50539825 8.11905273 4.86626526 8.73779297 5.23806763 C18.45359516 11.08084895 27.65627077 17.39160498 36.42578125 24.58740234 C37.92185377 25.80731032 39.44923536 26.98859121 40.98046875 28.1640625 C70.32767069 51.00422115 90.15126226 80.68883716 98.10546875 116.95703125 C98.27062988 117.67503906 98.43579102 118.39304687 98.60595703 119.1328125 C108.02104752 161.7392613 100.71004114 212.39649516 78.19140625 249.71875 C65.29478853 269.73990372 47.44262992 283.06895118 26.10546875 292.95703125 C25.39664551 293.29573242 24.68782227 293.63443359 23.95751953 293.98339844 C18.57625473 296.48767941 13.24323033 298.18944022 7.48046875 299.58203125 C6.69285156 299.78570313 5.90523437 299.989375 5.09375 300.19921875 C-8.82079455 303.63926463 -22.63945182 304.36474703 -36.89453125 304.33203125 C-38.17529541 304.33171402 -38.17529541 304.33171402 -39.48193359 304.33139038 C-53.26216053 304.29741642 -66.5033066 303.46405092 -79.89453125 299.95703125 C-80.59819824 299.7751123 -81.30186523 299.59319336 -82.02685547 299.40576172 C-100.65345647 294.36752954 -118.04040181 284.25395621 -131.89453125 270.95703125 C-132.74015625 270.15265625 -133.58578125 269.34828125 -134.45703125 268.51953125 C-135.26140625 267.67390625 -136.06578125 266.82828125 -136.89453125 265.95703125 C-137.57128906 265.25191406 -138.24804688 264.54679687 -138.9453125 263.8203125 C-166.14660326 234.69893063 -171.03004203 197.21582222 -169.89453125 158.95703125 C-168.19311778 118.52344053 -151.44094102 82.5558008 -122.9140625 53.97265625 C-120.95886385 52.22894708 -118.93811638 50.59665188 -116.89453125 48.95703125 C-115.75498354 47.98616431 -114.61713372 47.0133029 -113.48046875 46.0390625 C-92.84071127 28.5521663 -26.47334907 -15.68783089 0 0 Z " fill="#F5F3EF" transform="translate(1034.89453125,914.04296875)"/>
</svg>
